<svg width="22" height="19" viewBox="0 0 22 19" fill="none" xmlns="http://www.w3.org/2000/svg">
<path d="M11 19C10.9193 19 10.8401 18.9798 10.7704 18.9413C10.6608 18.8813 8.06025 17.4431 5.41796 15.126C1.82279 11.9736 0 8.85847 0 5.86769C0 1.83637 2.87787 0 5.55179 0C7.61383 0 9.91971 1.1179 11 3.57668C12.0803 1.1179 14.3866 0 16.4482 0C19.1221 0 22 1.83637 22 5.86769C22 8.85847 20.1772 11.9736 16.582 15.126C13.9398 17.4431 11.3392 18.8818 11.2296 18.9413C11.1599 18.9798 11.0807 19 11 19ZM5.55179 0.869287C3.31925 0.869287 0.916667 2.43357 0.916667 5.86769C0.916667 11.8931 9.47558 17.1667 11 18.0577C12.523 17.1662 21.0833 11.8888 21.0833 5.86769C21.0833 2.43357 18.6808 0.869287 16.4482 0.869287C14.3981 0.869287 12.0574 2.20016 11.4501 5.17356C11.43 5.27277 11.374 5.36224 11.2919 5.42657C11.2097 5.49091 11.1065 5.52611 11 5.52611C10.8935 5.52611 10.7903 5.49091 10.7081 5.42657C10.626 5.36224 10.57 5.27277 10.5499 5.17356C9.94263 2.2006 7.60192 0.869287 5.55179 0.869287Z" fill="#3EA2FF"/>
</svg>
